{
  "title": "This Is the End (2013) DVDRip XviD-MAX",
  "uid": 8915539,
  "size": 1515278470,
  "categoryP": "video",
  "categoryS": "movies",
  "magnet": "?xt=urn:btih:e28e7838bc706337ed3e1ab2b6e3f2636b0da778&amp;dn=This+Is+the+End+%282013%29+DVDRip+XviD-MAX&amp;tr=udp%3A%2F%2Ftracker.openbittorrent.com%3A80&amp;tr=udp%3A%2F%2Fopen.demonii.com%3A1337&amp;tr=udp%3A%2F%2Ftracker.coppersurfer.tk%3A6969&amp;tr=udp%3A%2F%2Fexodus.desync.com%3A6969",
  "seeders": 39,
  "leechers": 9,
  "uploader": "extremezone",
  "files": -1,
  "time": 1379133128,
  "description": " &lt;a href=&quot;http://imageshack.us/a/img809/7889/ckom.jpg&quot; rel=&quot;nofollow&quot; target=&quot;_NEW&quot;&gt;http://imageshack.us/a/img809/7889/ckom.jpg&lt;/a&gt;\n\nScreens:\n &lt;a href=&quot;\nhttp://imageshack.us/a/img31/4627/b0s1.jpg&quot; rel=&quot;nofollow&quot; target=&quot;_NEW&quot;&gt;\nhttp://imageshack.us/a/img31/4627/b0s1.jpg&lt;/a&gt; &lt;a href=&quot;\nhttp://imageshack.us/a/img824/250/gzy5.jpg&quot; rel=&quot;nofollow&quot; target=&quot;_NEW&quot;&gt;\nhttp://imageshack.us/a/img824/250/gzy5.jpg&lt;/a&gt; &lt;a href=&quot;\nhttp://imageshack.us/a/img819/9338/7xu6.jpg&quot; rel=&quot;nofollow&quot; target=&quot;_NEW&quot;&gt;\nhttp://imageshack.us/a/img819/9338/7xu6.jpg&lt;/a&gt;\n\nScreenCaps:\n &lt;a href=&quot;\nhttp://cdn.piczend.com/images/BET0Cl1L/1379125438_screencaps.jpeg&quot; rel=&quot;nofollow&quot; target=&quot;_NEW&quot;&gt;\nhttp://cdn.piczend.com/images/BET0Cl1L/1379125438_screencaps.jpeg&lt;/a&gt;\n\nThis Is the End (2013) DVDRip XviD-MAX\nFormat                                   : AVI\nFormat/Info                              : Audio Video Interleave\nFormat profile                           : OpenDML\nFormat settings                          : rec\nFile size                                : 1.40 GiB\nDuration                                 : 1h 46mn\nOverall bit rate                         : 1 885 Kbps\nWriting application                      : VirtualDubMod 1.5.10.2 (build 2542/release)\nWriting library                          : VirtualDubMod build 2542/release\nOriginal source form                     : MAX TORRENTZ\nCopyright                                : SIGISMUNT\n\nVideo\nID                                       : 0\nFormat                                   : MPEG-4 Visual\nFormat profile                           : Advanced Simple@L5\nFormat settings, BVOP                    : 3\nFormat settings, QPel                    : No\nFormat settings, GMC                     : No warppoints\nFormat settings, Matrix                  : Default (MPEG)\nCodec ID                                 : XVID\nCodec ID/Hint                            : XviD\nDuration                                 : 1h 46mn\nBit rate                                 : 1 496 Kbps\nWidth                                    : 720 pixels\nHeight                                   : 304 pixels\nDisplay aspect ratio                     : 2.35:1\nFrame rate                               : 23.976 fps\nColor space                              : YUV\nChroma subsampling                       : 4:2:0\nBit depth                                : 8 bits\nScan type                                : Progressive\nCompression mode                         : Lossy\nBits/(Pixel*Frame)                       : 0.285\nStream size                              : 1.11 GiB (79%)\nWriting library                          : XviD 1.2.1 (UTC 2008-12-04)\n\nAudio\nID                                       : 1\nFormat                                   : AC-3\nFormat/Info                              : Audio Coding 3\nMode extension                           : CM (complete main)\nFormat settings, Endianness              : Big\nCodec ID                                 : 2000\nDuration                                 : 1h 46mn\nBit rate mode                            : Constant\nBit rate                                 : 384 Kbps\nChannel(s)                               : 6 channels\nChannel positions                        : Front: L C R, Side: L R, LFE\nSampling rate                            : 48.0 KHz\nBit depth                                : 16 bits\nCompression mode                         : Lossy\nStream size                              : 293 MiB (20%)\nAlignment                                : Aligned on interleaves\nInterleave, duration                     : 64 ms (1.53 video frames)\nInterleave, preload duration             : 192 ms\n\nSource: DVD (perfect a/v/sync quality,sample included)\nThis torrent is not seedbox supported,please seed it to the MAX\n\nNote:If you have something to offer as early releases,seedboxes,\nlinks,accounts,etc please contact us on torentz 3xforum ro\n\nThis Is the End (2013) DVDRip XviD-MAX Torrent Free Download\n &lt;a href=&quot;\nhttp://thepiratebay.se/user/extremezone/0/7/0&quot; rel=&quot;nofollow&quot; target=&quot;_NEW&quot;&gt;\nhttp://thepiratebay.se/user/extremezone/0/7/0&lt;/a&gt;\n\nHow To Get Your MAXSPEED (uTorrent)\n\nTorrent Client - Preferences - Bandwidth - Number of connections - Set aprox. 500 for each\nTorrent Client - Preferences - BiTorrent - Protocol Encryption - Forced\nBandwidth Allocation - High (Set download/upload limit - Unlimited)\nStop Other Active Torrents - Start downloading and wait for connections.\nEnjoy and Seed for at least 1:1 ratio. Don't forget to say thanks/leave reviews.\nBefore downloading you should check/google search sample &quot;release name&quot;&quot;sample&quot;.\nGreets to all actual/future p2p/scene QUALITY groups and affiliate websites.\nDon't trust IMDb robot or bad ratings,always watch some trailers first.\nIgnore stupid comments/fake/mislabeled/no-DVDrips/CAM/TS/RAR uploads.\nPlease spread this release/torrent to your friends/forums/etc.\nIf you need translation subs visit some subtitles sites.\nReport if you see online streaming or other spam links.\nRecommended movie player VLC PLAYER.",
  "parsed": {
    "xt": "urn:btih:e28e7838bc706337ed3e1ab2b6e3f2636b0da778",
    "dn": "This Is the End (2013) DVDRip XviD-MAX",
    "tr": [
      "udp://exodus.desync.com:6969",
      "udp://open.demonii.com:1337",
      "udp://tracker.coppersurfer.tk:6969",
      "udp://tracker.openbittorrent.com:80"
    ],
    "infoHash": "e28e7838bc706337ed3e1ab2b6e3f2636b0da778",
    "infoHashBuffer": {
      "type": "Buffer",
      "data": [
        226,
        142,
        120,
        56,
        188,
        112,
        99,
        55,
        237,
        62,
        26,
        178,
        182,
        227,
        242,
        99,
        107,
        13,
        167,
        120
      ]
    },
    "name": "This Is the End (2013) DVDRip XviD-MAX",
    "announce": [
      "udp://exodus.desync.com:6969",
      "udp://open.demonii.com:1337",
      "udp://tracker.coppersurfer.tk:6969",
      "udp://tracker.openbittorrent.com:80"
    ],
    "urlList": []
  },
  "previous": 48,
  "peers": 3,
  "last_updated": "2016-12-25T16:22:03.420Z"
}